<svg xmlns="http://www.w3.org/2000/svg" xmlns:xlink="http://www.w3.org/1999/xlink" viewBox="0 0 364.35 325.74"><defs><clipPath id="clip-path"><rect width="28.8" height="28.8" style="fill:none"/></clipPath><pattern id="Nueva_muestra_de_motivo_2" data-name="Nueva muestra de motivo 2" width="28.8" height="28.8" patternTransform="translate(36.31 -6.25) scale(0.45)" patternUnits="userSpaceOnUse" viewBox="0 0 28.8 28.8"><rect width="28.8" height="28.8" style="fill:none"/><g style="clip-path:url(#clip-path)"><rect width="28.8" height="28.8" style="fill:#fff"/><path d="M28.8,31.39a2.59,2.59,0,1,0-2.59-2.59A2.59,2.59,0,0,0,28.8,31.39Z" style="fill:#d14c4c"/><path d="M14.4,31.39a2.59,2.59,0,1,0-2.59-2.59A2.59,2.59,0,0,0,14.4,31.39Z" style="fill:#d14c4c"/><path d="M0,31.39A2.59,2.59,0,0,0,2.59,28.8,2.59,2.59,0,0,0,0,26.21a2.59,2.59,0,1,0,0,5.18Z" style="fill:#d14c4c"/><path d="M28.8,17a2.59,2.59,0,1,0-2.59-2.59A2.59,2.59,0,0,0,28.8,17Z" style="fill:#d14c4c"/><path d="M14.4,17a2.59,2.59,0,1,0-2.59-2.59A2.59,2.59,0,0,0,14.4,17Z" style="fill:#d14c4c"/><path d="M0,17A2.59,2.59,0,0,0,2.59,14.4,2.59,2.59,0,0,0,0,11.81,2.59,2.59,0,0,0,0,17Z" style="fill:#d14c4c"/><path d="M28.8,2.59A2.59,2.59,0,0,0,31.39,0a2.59,2.59,0,1,0-5.18,0A2.59,2.59,0,0,0,28.8,2.59Z" style="fill:#d14c4c"/><path d="M14.4,2.59A2.59,2.59,0,0,0,17,0a2.59,2.59,0,1,0-5.18,0A2.59,2.59,0,0,0,14.4,2.59Z" style="fill:#d14c4c"/><path d="M0,2.59A2.59,2.59,0,0,0,2.59,0,2.59,2.59,0,0,0,0-2.59,2.59,2.59,0,0,0-2.59,0,2.59,2.59,0,0,0,0,2.59Z" style="fill:#d14c4c"/><path d="M-14.4,2.59A2.59,2.59,0,0,0-11.81,0,2.59,2.59,0,0,0-14.4-2.59,2.59,2.59,0,0,0-17,0,2.59,2.59,0,0,0-14.4,2.59Z" style="fill:#d14c4c"/><path d="M-14.4,0" style="fill:#d14c4c"/><path d="M7.2,24.19A2.59,2.59,0,1,0,4.61,21.6,2.59,2.59,0,0,0,7.2,24.19Z" style="fill:#d14c4c"/><path d="M21.6,24.19A2.59,2.59,0,1,0,19,21.6,2.59,2.59,0,0,0,21.6,24.19Z" style="fill:#d14c4c"/><path d="M7.2,9.79A2.59,2.59,0,1,0,4.61,7.2,2.59,2.59,0,0,0,7.2,9.79Z" style="fill:#d14c4c"/><path d="M21.6,9.79A2.59,2.59,0,1,0,19,7.2,2.59,2.59,0,0,0,21.6,9.79Z" style="fill:#d14c4c"/><path d="M-7.2,9.79A2.59,2.59,0,0,0-4.61,7.2,2.59,2.59,0,0,0-7.2,4.61,2.59,2.59,0,0,0-9.79,7.2,2.59,2.59,0,0,0-7.2,9.79Z" style="fill:#d14c4c"/><path d="M-7.2,7.2" style="fill:#d14c4c"/></g></pattern></defs><title>Asset 2</title><g id="Layer_2" data-name="Layer 2"><g id="objects"><path d="M28.44,104c1.16-.39,2.31-.77,3.44-1.22,2.09-.82,4-1.81,6.19-2.43,2.41-9.85,4.41-21.27-1-23C30,75.12,24.51,81.48,21.73,94c-1.09,4.87-2.2,9.34-2.43,13.63,0-.26,2.77-1.18,3.12-1.32,1-.42,2-.82,3-1.21S27.44,104.35,28.44,104Z" style="fill:none;stroke:#000;stroke-miterlimit:10;stroke-width:2.72064344571761px"/><path d="M88.64,42S65.52,57,60.75,63.09,54,87.57,48.51,93.69s-34,15-36.72,17.69-8.18,16,.4,19c8.16,3,9.52,2.27,10.48,7.48,0,0,2,7.48-2.72,8.84S9.75,155.58,12.47,161c0,0-8.17,7.49-5.45,11.57s3.41,11.56.68,15.64-16.32,16.32,5.45,29.93S56,231.76,66.2,231.76c6.72-.8,30.18,55.42,27.42,72.63.93.07,75.47,47.7,96.53-3.05,1.14-2.74-3.57-61.15-3.57-64.14-.08-36.78,10.2-44.21,10.2-44.21S180.46,135.18,175,119.54,146.45,33.16,88.64,42Z" style="stroke:#000;stroke-miterlimit:10;stroke-width:2.02118043215632px;fill:url(#Nueva_muestra_de_motivo_2)"/><path d="M79.07,81.45s-.9-5.89,3.63-8.16,32.2,8.61,38.54,28.57C121.24,101.86,113.54,77.37,79.07,81.45Z"/><path d="M37.81,103.67C42.41,90.45,50.51,81,60.94,85.08s8.16,22,3.62,33.1c-4.14,10.15-15,19.41-24.26,12.47C33.05,125.21,34.18,114.1,37.81,103.67Z" style="fill:none;stroke:#000;stroke-miterlimit:10;stroke-width:2.72064344571761px"/><path d="M22.62,136.77c1.21.83,2.36,1.67,3.52,2.5s2.31,1.63,3.51,2.33a12.87,12.87,0,0,0,3.7,1.63,3.6,3.6,0,0,0,1.9-.06A3.73,3.73,0,0,0,36.9,142a3.31,3.31,0,0,1-1.36,1.79,3.94,3.94,0,0,1-2.32.5A9.89,9.89,0,0,1,29,142.77a20.86,20.86,0,0,1-3.49-2.68A19.61,19.61,0,0,1,22.62,136.77Z"/><path d="M13.1,152.64s5.89-.68,9.07,2.5,2,8.61,4.53,12.92,5.22,7.71,4.31,8.84-20.08.9-24-4.31c0,0-3-4.76,5.4-10.88C12.42,161.71,10.15,156.72,13.1,152.64Z" style="fill:#d14c4c;stroke:#000;stroke-miterlimit:10;stroke-width:2.02118043215632px"/><path d="M14.46,162.84a34.05,34.05,0,0,1,3.71,2.27c1.19.81,2.33,1.69,3.46,2.58s2.21,1.84,3.25,2.84a28.12,28.12,0,0,1,3,3.2,61.28,61.28,0,0,1-7.06-5A51.82,51.82,0,0,1,14.46,162.84Z"/><path d="M89.73,120s-17.91-6.12-23.35-12c0,0-1.36,6.35-1.59,9.07C64.79,117.05,82.25,121.58,89.73,120Z" style="fill:#fff;stroke:#000;stroke-miterlimit:10;stroke-width:2.02118043215632px"/><path d="M61.62,103.67l6.81,4.6c2.27,1.51,4.51,3,6.81,4.43,1.16.7,2.3,1.42,3.48,2.06s2.37,1.27,3.54,1.95c2.41,1.2,4.87,2.29,7.47,3.28a26.19,26.19,0,0,1-8.18-1.66,46.23,46.23,0,0,1-7.5-3.7,55.13,55.13,0,0,1-6.69-5A39.73,39.73,0,0,1,61.62,103.67Z"/><path d="M91.77,119.91c.29-1.36.55-2.74.76-4.12a24.45,24.45,0,0,0,.37-4.19,24.76,24.76,0,0,1,.76,4.21c.17,1.42.29,2.83.37,4.27Z"/><path d="M65.5,107.26c1.16-1.23,2.33-2.35,3.54-3.46s2.46-2.17,3.75-3.19a36.4,36.4,0,0,1,8.32-5.1,35.82,35.82,0,0,0-7.57,5.95c-1.14,1.14-2.23,2.32-3.28,3.52s-2.08,2.47-3,3.72Z"/><line x1="64.79" y1="117.05" x2="150.42" y2="147.5" style="fill:none;stroke:#000;stroke-miterlimit:10;stroke-width:2.72064344571761px"/><path d="M110.81,168.36a44.66,44.66,0,0,1-12.72,5.69,41.36,41.36,0,0,1-6.88,1.32,30.34,30.34,0,0,1-7-.06c2.32-.26,4.59-.55,6.84-1s4.48-.93,6.68-1.58,4.39-1.29,6.57-2S108.64,169.2,110.81,168.36Z"/><path d="M66.19,230.62c5.54,0,11.11-.1,16.66-.3s11.12-.52,16.66-1,11.07-1.09,16.54-2.07a74.68,74.68,0,0,0,8.12-1.88,22.51,22.51,0,0,0,7.5-3.51,22.42,22.42,0,0,1-7.41,3.78,75.51,75.51,0,0,1-8.1,2.16c-5.46,1.18-11,2-16.54,2.64S88.52,231.62,83,232s-11.14.71-16.74.88Z"/><path d="M217.18,36.56s6.13-38.77,67.34-35.37,66,52.37,68,63.94-2,48.29,9.52,61.89a23.38,23.38,0,0,1-19.72-18.36s0,32,6.12,50.32,18.36,89.78-17.68,106.78c0,0-29.93,32.65-63.26-3.4,0,0,12.93,8.17,26.53,2,0,0-14.28-5.44-21.09-15.64,0,0-24.48,7.48-40.8-21.76,0,0,17.68,8.16,24.48-6.12s6.8-71.42,6.8-71.42Z" style="fill:#d14c4c;stroke:#000;stroke-miterlimit:10;stroke-width:1.96730065040483px"/><path d="M336.66,132.52a57.56,57.56,0,0,0,2,18c2.67,9.33,23.34,88.66-5.33,108,0,0,8.67-12,6.67-40S330,147.85,336.66,132.52Z" style="fill:#fff"/><path d="M329.33,153.85s-1.33,35.33,1.33,46.67,8.67,62.66-15.33,70.66c0,0,10.67-9.33,10.67-30.66S314,183.18,329.33,153.85Z" style="fill:#fff"/><path d="M316.66,127.68s6.5,16,1.5,30.5c-5.11,14.85-4.5,23-3.5,39,0,0-11-10-9.5-21.5S317.66,136.68,316.66,127.68Z" style="fill:#fff"/><path d="M249.16,237.68s19.5,11.5,26,4,11.5-32,8-49c0,0-7.11,37.5-15,41A53.07,53.07,0,0,1,249.16,237.68Z" style="fill:#fff"/><path d="M236.16,28.68s25-4,39.5,26,11,78,4,110-9.5,51-9.5,51-.5-54,2.5-78.5S277.66,36.68,236.16,28.68Z" style="fill:#fff"/><path d="M302,124.52s-6.67,48,0,69.33,3.33,57.33-11.34,64c0,0,6.67-21.33,5.34-34.67-.93-9.28-10-35.33-7.34-52.66S302,124.52,302,124.52Z" style="fill:#fff"/><path d="M279,44.6s20,18.14,14.51,71.65a71.46,71.46,0,0,0,10-33.56s9.07,10,3.63,43.53c0,0,12.69-24.48,10.88-48.06,0,0,10,28.11,7.26,59,0,0,15.41-35.37,4.53-75.27,0,0,6,21.76,12.05,35.82,0,0,3.37-22.22-6.61-47.61s-29-41.72-47.16-43.53c0,0,19.95,15.41,24.49,29.92,0,0-15.42-23.58-35.37-26.3,0,0,13.6,11.79,17.23,22.68,0,0-25.39-17.24-39.9-12.7C254.51,20.12,268.11,27.37,279,44.6Z" style="fill:#fff"/><path d="M117.89,25.68s30.6-12.24,95.89,6.8,84.34,150.31,2,172.07a7.77,7.77,0,0,0,8.17,6.8s-11.57,6.13-24.49,2c0,0-.68,4.09,4.76,6.81,0,0-29.92-6.81-32-33.33s-9.53-35.37-9.53-35.37-25.84,25.17-42.16,10.89c0,0,32.64-2.73,32-24.49s-4.08-42.17-36-61.89Z" style="fill:#d14c4c;stroke:#000;stroke-miterlimit:10;stroke-width:1.96730065040483px"/><path d="M224,49.18s32.66,30,32.66,66-16.66,57.34-22,61.34c0,0,15.45-36.57,11.34-60A257.69,257.69,0,0,0,224,49.18Z" style="fill:#fff"/><path d="M237.33,145.18s1.33,38-23.33,46.67A411.44,411.44,0,0,0,237.33,145.18Z" style="fill:#fff"/><path d="M263.33,136.52s-7.33,38.66-52.67,62C210.66,198.52,262.66,192.52,263.33,136.52Z" style="fill:#fff"/><path d="M139,19.56s53.05,40.81,32,129.22l19.72-2.72S217.86,86.89,192,23.64C192,23.64,166.17,14.8,139,19.56Z" style="fill:#526cff;stroke:#000;stroke-miterlimit:10;stroke-width:2.02118043215632px"/><path d="M170.94,148.78s17.41-10.65,26-2.94,4.53,26.3-6.35,28.57-16.78,5-20.4,7.7-16.78,12.7-22.22-2.72" style="stroke:#000;stroke-miterlimit:10;stroke-width:2.02118043215632px;fill:url(#Nueva_muestra_de_motivo_2)"/><path d="M174.9,153.55s18.74-7.56,20.56-.61-1.82,16.33-11.19,17.23-18.44,7.26-23,9.38-5.44-4.84-4.84-6.35" style="fill:none;stroke:#000;stroke-miterlimit:10;stroke-width:2.02118043215632px"/><path d="M178.23,155.36s-1.52,7.26-5.75,10.28-9.07,2.12-10.58,4.23" style="fill:none;stroke:#000;stroke-miterlimit:10;stroke-width:2.02118043215632px"/><path d="M139,19.56S109.72-9.69,83.2,11.4s-1.36,85,50.33,79.57c0,0,2,3.4,15.64,3.4,0,0,46.93,13.6,59.85-14.28,0,0-28.56,14.28-49-12.24S147.81,27,139,19.56Z" style="fill:#d14c4c;stroke:#000;stroke-miterlimit:10;stroke-width:1.96730065040483px"/><path d="M95.4,55.6s11.79,26.3,51.69,27.21C147.09,82.81,109.91,74.65,95.4,55.6Z" style="fill:#fff"/><path d="M101.75,30.21s29,51.69,84.34,61.67C186.09,91.88,129,62,101.75,30.21Z" style="fill:#fff"/><circle cx="115.89" cy="267.51" r="10.27" style="fill:#d62800"/><circle cx="115.89" cy="267.51" r="18.04" style="fill:#d62800;opacity:0.4"/><circle cx="115.89" cy="267.51" r="25.77" style="fill:#d62800;opacity:0.39"/></g></g></svg>